<?xml version="1.0" encoding="UTF-8" standalone="no"?>
<!-- Created with Inkscape (http://www.inkscape.org/) -->

<svg
   xmlns:dc="http://purl.org/dc/elements/1.1/"
   xmlns:cc="http://creativecommons.org/ns#"
   xmlns:rdf="http://www.w3.org/1999/02/22-rdf-syntax-ns#"
   xmlns:svg="http://www.w3.org/2000/svg"
   xmlns="http://www.w3.org/2000/svg"
   xmlns:sodipodi="http://sodipodi.sourceforge.net/DTD/sodipodi-0.dtd"
   xmlns:inkscape="http://www.inkscape.org/namespaces/inkscape"
   width="180"
   height="60"
   id="svg2"
   version="1.1"
   inkscape:version="0.48.4 r9939"
   sodipodi:docname="cc.svg">
  <defs
     id="defs4" />
  <sodipodi:namedview
     id="base"
     pagecolor="#ffffff"
     bordercolor="#666666"
     borderopacity="1.0"
     inkscape:pageopacity="0.0"
     inkscape:pageshadow="2"
     inkscape:zoom="7.9195959"
     inkscape:cx="165.95627"
     inkscape:cy="28.978717"
     inkscape:document-units="px"
     inkscape:current-layer="layer1"
     showgrid="false"
     inkscape:window-width="1311"
     inkscape:window-height="744"
     inkscape:window-x="55"
     inkscape:window-y="24"
     inkscape:window-maximized="1" />
  <metadata
     id="metadata7">
    <rdf:RDF>
      <cc:Work
         rdf:about="">
        <dc:format>image/svg+xml</dc:format>
        <dc:type
           rdf:resource="http://purl.org/dc/dcmitype/StillImage" />
        <dc:title></dc:title>
      </cc:Work>
    </rdf:RDF>
  </metadata>
  <g
     inkscape:label="Layer 1"
     inkscape:groupmode="layer"
     id="layer1"
     transform="translate(0,-992.36218)">
    <path
       sodipodi:type="arc"
       style="opacity:0.8;fill:#d15600;fill-opacity:1;stroke:none"
       id="path2991"
       sodipodi:cx="115.35714"
       sodipodi:cy="337.36218"
       sodipodi:rx="29.642857"
       sodipodi:ry="29.642857"
       d="m 145,337.36218 a 29.642857,29.642857 0 1 1 -59.285717,0 29.642857,29.642857 0 1 1 59.285717,0 z"
       transform="matrix(1.0120482,0,0,1.0120482,-86.746986,680.93539)" />
    <path
       transform="matrix(1.0120482,0,0,1.0120482,33.25302,680.93539)"
       sodipodi:type="arc"
       style="opacity:0.8;fill:#d01f3c;fill-opacity:1;stroke:none"
       id="path2991-1"
       sodipodi:cx="115.35714"
       sodipodi:cy="337.36218"
       sodipodi:rx="29.642857"
       sodipodi:ry="29.642857"
       d="m 145,337.36218 a 29.642857,29.642857 0 1 1 -59.285717,0 29.642857,29.642857 0 1 1 59.285717,0 z" />
    <path
       transform="matrix(1.0120482,0,0,1.0120482,-6.7469859,680.93539)"
       sodipodi:type="arc"
       style="opacity:0.8;fill:#3f4c6b;fill-opacity:1;stroke:none"
       id="path2991-5"
       sodipodi:cx="115.35714"
       sodipodi:cy="337.36218"
       sodipodi:rx="29.642857"
       sodipodi:ry="29.642857"
       d="m 145,337.36218 a 29.642857,29.642857 0 1 1 -59.285717,0 29.642857,29.642857 0 1 1 59.285717,0 z" />
    <path
       transform="matrix(1.0120482,0,0,1.0120482,-46.746986,680.93539)"
       sodipodi:type="arc"
       style="opacity:0.8;fill:#73880a;fill-opacity:1;stroke:none"
       id="path2991-4"
       sodipodi:cx="115.35714"
       sodipodi:cy="337.36218"
       sodipodi:rx="29.642857"
       sodipodi:ry="29.642857"
       d="m 145,337.36218 a 29.642857,29.642857 0 1 1 -59.285717,0 29.642857,29.642857 0 1 1 59.285717,0 z" />
  </g>
</svg>
